<?xml version="1.0" encoding="UTF-8"?>
<svg id="Layer_2" xmlns="http://www.w3.org/2000/svg" viewBox="0 0 255.12 141.73">
  <defs>
    <style>
      .cls-1 {
        fill: #f4d100;
      }

      .cls-2 {
        stroke-width: .2px;
      }

      .cls-2, .cls-3, .cls-4 {
        stroke: #fff;
      }

      .cls-2, .cls-3, .cls-4, .cls-5, .cls-6 {
        fill: none;
      }

      .cls-2, .cls-3, .cls-4, .cls-6 {
        stroke-miterlimit: 10;
      }

      .cls-7 {
        fill: #ff7300;
      }

      .cls-8 {
        fill: #fff;
      }

      .cls-9 {
        fill: #036b70;
      }

      .cls-10 {
        fill: #5b5b5b;
      }

      .cls-4, .cls-5, .cls-11 {
        stroke-linecap: round;
      }

      .cls-12 {
        fill: #ffce00;
      }

      .cls-13 {
        fill: #fec;
      }

      .cls-14 {
        fill: #fff4bb;
      }

      .cls-5 {
        stroke: #808285;
      }

      .cls-5, .cls-11 {
        stroke-linejoin: round;
      }

      .cls-15 {
        fill: #9e0000;
      }

      .cls-16 {
        fill: #d6d6d6;
      }

      .cls-17 {
        fill: #7f7e75;
      }

      .cls-18 {
        fill: #a5a5a5;
      }

      .cls-6 {
        stroke: #6d6e71;
      }

      .cls-11 {
        fill: #4084b2;
        stroke: #f1f2f2;
      }

      .cls-19 {
        fill: #d1caa1;
      }

      .cls-20 {
        fill: #f7f7f7;
      }

      .cls-21 {
        fill: #353533;
      }

      .cls-22 {
        fill: #d1d3d4;
      }

      .cls-23 {
        fill: #b5b5b5;
      }
    </style>
  </defs>
  <rect class="cls-9" x="-.3" y="-.03" width="255.12" height="141.73"/>
  <g id="BUZZER">
    <g>
      <circle class="cls-20" cx="181.75" cy="20.06" r="17.38"/>
      <circle cx="181.86" cy="20.19" r="15.42"/>
    </g>
    <circle class="cls-7" cx="181.86" cy="20.19" r="3.75"/>
  </g>
  <g>
    <rect x="206.39" y="6.29" width="4.41" height="2.2"/>
    <rect class="cls-8" x="204.13" y="6.29" width="2.26" height="2.2"/>
    <rect class="cls-8" x="210.8" y="6.29" width="2.26" height="2.2"/>
    <rect class="cls-2" x="203.09" y="5.34" width="10.8" height="4.01"/>
  </g>
  <g>
    <rect x="219.97" y="6.33" width="4.41" height="2.2"/>
    <rect class="cls-8" x="217.71" y="6.33" width="2.26" height="2.2"/>
    <rect class="cls-8" x="224.38" y="6.33" width="2.26" height="2.2"/>
    <rect class="cls-2" x="216.67" y="5.38" width="10.8" height="4.01"/>
  </g>
  <g>
    <rect x="220.08" y="12.43" width="4.41" height="2.2"/>
    <rect class="cls-8" x="217.81" y="12.43" width="2.26" height="2.2"/>
    <rect class="cls-8" x="224.48" y="12.43" width="2.26" height="2.2"/>
    <rect class="cls-2" x="216.77" y="11.48" width="10.8" height="4.01"/>
  </g>
  <g>
    <rect x="218.21" y="57.37" width="3.97" height="1.98"/>
    <rect class="cls-8" x="216.17" y="57.37" width="2.04" height="1.98"/>
    <rect class="cls-8" x="222.18" y="57.37" width="2.04" height="1.98"/>
    <rect class="cls-2" x="215.24" y="56.51" width="9.72" height="3.61"/>
  </g>
  <g>
    <rect x="218.3" y="62.85" width="3.97" height="1.98"/>
    <rect class="cls-8" x="216.27" y="62.85" width="2.04" height="1.98"/>
    <rect class="cls-8" x="222.27" y="62.85" width="2.04" height="1.98"/>
    <rect class="cls-2" x="215.33" y="62" width="9.72" height="3.61"/>
  </g>
  <g>
    <rect x="216.09" y="31.19" width="1.98" height="3.97"/>
    <rect class="cls-8" x="216.08" y="35.15" width="1.98" height="2.04"/>
    <rect class="cls-8" x="216.09" y="29.15" width="1.98" height="2.04"/>
    <rect class="cls-2" x="215.23" y="28.42" width="3.61" height="9.72"/>
  </g>
  <g>
    <rect x="216.13" y="45.8" width="1.98" height="3.97"/>
    <rect class="cls-8" x="216.12" y="49.77" width="1.98" height="2.04"/>
    <rect class="cls-8" x="216.13" y="43.76" width="1.98" height="2.04"/>
    <rect class="cls-2" x="215.27" y="43.03" width="3.61" height="9.72"/>
  </g>
  <g>
    <rect x="217.31" y="91.99" width="1.98" height="3.97"/>
    <rect class="cls-8" x="217.32" y="95.95" width="1.98" height="2.04"/>
    <rect class="cls-8" x="217.32" y="89.95" width="1.98" height="2.04"/>
    <rect class="cls-2" x="216.46" y="89.2" width="3.61" height="9.72"/>
  </g>
  <g>
    <rect x="188.03" y="117.65" width="1.98" height="3.97"/>
    <rect class="cls-8" x="188.03" y="121.62" width="1.98" height="2.04"/>
    <rect class="cls-8" x="188.04" y="115.61" width="1.98" height="2.04"/>
    <rect class="cls-2" x="187.18" y="114.88" width="3.61" height="9.72"/>
  </g>
  <g>
    <rect x="195.49" y="129.71" width="1.98" height="3.97"/>
    <rect class="cls-8" x="195.48" y="133.68" width="1.98" height="2.04"/>
    <rect class="cls-8" x="195.49" y="127.67" width="1.98" height="2.04"/>
    <rect class="cls-2" x="194.63" y="126.94" width="3.61" height="9.72"/>
  </g>
  <g>
    <rect class="cls-1" x="188.03" y="129.62" width="1.98" height="3.97"/>
    <rect class="cls-8" x="188.04" y="133.58" width="1.98" height="2.04"/>
    <rect class="cls-8" x="188.03" y="127.57" width="1.98" height="2.04"/>
    <rect class="cls-2" x="187.17" y="126.84" width="3.61" height="9.72"/>
  </g>
  <g>
    <rect class="cls-18" x="230.9" y="32.9" width="19.08" height="8.59"/>
    <rect x="236.77" y="34.84" width="7.35" height="4.72"/>
    <rect class="cls-8" x="232.4" y="34.64" width="2.03" height="5.12"/>
    <rect class="cls-8" x="246.44" y="34.64" width="2.03" height="5.12"/>
  </g>
  <g>
    <rect class="cls-8" x="238.34" y="5.01" width="11.61" height="18.06" rx=".91" ry=".91"/>
    <g>
      <rect class="cls-18" x="242.74" y="6.5" width="5.97" height="2.69" rx=".37" ry=".37"/>
      <rect class="cls-8" x="243.21" y="7.05" width=".63" height="1.6"/>
      <rect class="cls-8" x="247.61" y="7.05" width=".63" height="1.6"/>
    </g>
    <g>
      <rect class="cls-18" x="242.75" y="18.92" width="5.97" height="2.69" rx=".37" ry=".37"/>
      <rect class="cls-8" x="243.21" y="19.47" width=".63" height="1.6"/>
      <rect class="cls-8" x="247.61" y="19.47" width=".63" height="1.6"/>
    </g>
  </g>
  <g>
    <rect class="cls-18" x="232.04" y="100.83" width="19.08" height="8.59"/>
    <rect x="237.9" y="102.76" width="7.35" height="4.72"/>
    <rect class="cls-8" x="233.54" y="102.57" width="2.03" height="5.12"/>
    <rect class="cls-8" x="247.57" y="102.57" width="2.03" height="5.12"/>
  </g>
  <g>
    <rect class="cls-18" x="176.68" y="46.75" width="32.67" height="29.42"/>
    <rect x="179.49" y="54.24" width="26.45" height="18.34"/>
    <polygon class="cls-8" points="179.49 54.24 179.49 51.23 184.49 49.62 201.39 49.62 205.94 51.45 205.94 54.24 179.49 54.24"/>
    <rect class="cls-8" x="182.95" y="72.59" width="1.78" height="7.34"/>
    <rect class="cls-8" x="200.21" y="72.59" width="1.78" height="7.34"/>
    <rect class="cls-8" x="181.75" y="79.89" width="4.18" height="7.61"/>
    <rect class="cls-16" x="182.31" y="80.91" width="3.06" height="5.58"/>
    <rect class="cls-8" x="199.01" y="79.89" width="4.18" height="7.61"/>
    <rect class="cls-16" x="199.57" y="80.91" width="3.06" height="5.58"/>
    <rect class="cls-8" x="191.31" y="72.43" width="2.28" height="5.32"/>
  </g>
  <g>
    <rect x="118.37" y="38.89" width="45.69" height="22.75"/>
    <rect class="cls-17" x="118.37" y="55.27" width="45.69" height="49.86"/>
    <rect class="cls-19" x="121.15" y="55.27" width="42.92" height="47.03"/>
    <g>
      <rect class="cls-14" x="113.95" y="81.06" width="2.22" height="1.93"/>
      <rect class="cls-14" x="113.95" y="84.68" width="2.22" height="1.93"/>
      <rect class="cls-14" x="113.95" y="88.32" width="2.22" height="1.93"/>
      <rect class="cls-14" x="113.95" y="91.94" width="2.22" height="1.93"/>
      <rect class="cls-14" x="113.95" y="95.77" width="2.22" height="1.93"/>
      <rect class="cls-14" x="113.95" y="99.39" width="2.22" height="1.93"/>
      <rect class="cls-14" x="113.95" y="102.78" width="2.22" height="1.93"/>
    </g>
    <g>
      <rect class="cls-14" x="113.95" y="55.29" width="2.22" height="1.93"/>
      <rect class="cls-14" x="113.95" y="58.91" width="2.22" height="1.93"/>
      <rect class="cls-14" x="113.95" y="62.54" width="2.22" height="1.93"/>
      <rect class="cls-14" x="113.95" y="66.16" width="2.22" height="1.93"/>
      <rect class="cls-14" x="113.95" y="69.99" width="2.22" height="1.93"/>
      <rect class="cls-14" x="113.95" y="73.61" width="2.22" height="1.93"/>
      <rect class="cls-14" x="113.95" y="77" width="2.22" height="1.93"/>
    </g>
    <g>
      <rect class="cls-14" x="165.93" y="81.26" width="2.22" height="1.93"/>
      <rect class="cls-14" x="165.93" y="84.88" width="2.22" height="1.93"/>
      <rect class="cls-14" x="165.93" y="88.52" width="2.22" height="1.93"/>
      <rect class="cls-14" x="165.93" y="92.14" width="2.22" height="1.93"/>
      <rect class="cls-14" x="165.93" y="95.97" width="2.22" height="1.93"/>
      <rect class="cls-14" x="165.93" y="99.59" width="2.22" height="1.93"/>
      <rect class="cls-14" x="165.93" y="102.98" width="2.22" height="1.93"/>
    </g>
    <g>
      <rect class="cls-14" x="122.85" y="106.55" width="2" height="2.13"/>
      <rect class="cls-14" x="126.61" y="106.54" width="2" height="2.13"/>
      <rect class="cls-14" x="130.39" y="106.54" width="2" height="2.13"/>
      <rect class="cls-14" x="134.15" y="106.54" width="2" height="2.13"/>
      <rect class="cls-14" x="138.13" y="106.54" width="2" height="2.13"/>
      <rect class="cls-14" x="141.89" y="106.55" width="2" height="2.13"/>
      <rect class="cls-14" x="145.4" y="106.55" width="2" height="2.13"/>
      <rect class="cls-14" x="149.09" y="106.54" width="2" height="2.13"/>
      <rect class="cls-14" x="152.85" y="106.54" width="2" height="2.13"/>
      <rect class="cls-14" x="156.37" y="106.54" width="2" height="2.13"/>
    </g>
    <g>
      <rect class="cls-14" x="165.93" y="55.49" width="2.22" height="1.93"/>
      <rect class="cls-14" x="165.93" y="59.11" width="2.22" height="1.93"/>
      <rect class="cls-14" x="165.93" y="62.74" width="2.22" height="1.93"/>
      <rect class="cls-14" x="165.93" y="66.36" width="2.22" height="1.93"/>
      <rect class="cls-14" x="165.93" y="70.19" width="2.22" height="1.93"/>
      <rect class="cls-14" x="165.93" y="73.81" width="2.22" height="1.93"/>
      <rect class="cls-14" x="165.93" y="77.2" width="2.22" height="1.93"/>
    </g>
    <polyline class="cls-6" points="124.94 51.45 124.94 42.68 130.24 42.68 130.24 47.86 134.64 47.93 134.64 42.68 140.13 42.68 140.13 48.02 144.81 48.1 144.81 42.68 151.5 42.68 151.5 52.45"/>
    <polyline class="cls-6" points="151.95 42.68 157.41 42.68 157.41 52.45"/>
  </g>
  <g>
    <rect x="58.5" y="95.19" width="2.51" height="5.03"/>
    <rect class="cls-8" x="58.5" y="100.22" width="2.51" height="2.58"/>
    <rect class="cls-8" x="58.5" y="92.61" width="2.51" height="2.58"/>
    <rect class="cls-2" x="57.42" y="91.67" width="4.58" height="12.32"/>
  </g>
  <g>
    <rect x="66.01" y="95.19" width="2.51" height="5.03"/>
    <rect class="cls-8" x="66.02" y="100.22" width="2.51" height="2.58"/>
    <rect class="cls-8" x="66.01" y="92.61" width="2.51" height="2.58"/>
    <rect class="cls-2" x="64.93" y="91.66" width="4.58" height="12.32"/>
  </g>
  <g>
    <rect x="73.35" y="95.07" width="2.51" height="5.03"/>
    <rect class="cls-8" x="73.35" y="100.1" width="2.51" height="2.58"/>
    <rect class="cls-8" x="73.35" y="92.49" width="2.51" height="2.58"/>
    <rect class="cls-2" x="72.27" y="91.55" width="4.58" height="12.32"/>
  </g>
  <g>
    <rect class="cls-1" x="58.55" y="110.15" width="2.51" height="5.03"/>
    <rect class="cls-8" x="58.56" y="115.18" width="2.51" height="2.58"/>
    <rect class="cls-8" x="58.55" y="107.57" width="2.51" height="2.58"/>
    <rect class="cls-2" x="57.47" y="106.63" width="4.58" height="12.32"/>
  </g>
  <g>
    <rect class="cls-1" x="66.01" y="110.15" width="2.51" height="5.03"/>
    <rect class="cls-8" x="66.02" y="115.18" width="2.51" height="2.58"/>
    <rect class="cls-8" x="66.01" y="107.56" width="2.51" height="2.58"/>
    <rect class="cls-2" x="64.93" y="106.62" width="4.58" height="12.32"/>
  </g>
  <g>
    <rect class="cls-1" x="73.4" y="110.15" width="2.51" height="5.03"/>
    <rect class="cls-8" x="73.41" y="115.18" width="2.51" height="2.58"/>
    <rect class="cls-8" x="73.4" y="107.57" width="2.51" height="2.58"/>
    <rect class="cls-2" x="72.32" y="106.63" width="4.58" height="12.32"/>
  </g>
  <g>
    <rect x="157.76" y="10.03" width="1.98" height="3.97"/>
    <rect class="cls-8" x="157.77" y="13.99" width="1.98" height="2.04"/>
    <rect class="cls-8" x="157.77" y="7.99" width="1.98" height="2.04"/>
    <rect class="cls-2" x="156.91" y="7.24" width="3.61" height="9.72"/>
  </g>
  <g>
    <rect x="142.3" y="25.16" width="2.51" height="5.03"/>
    <rect class="cls-8" x="142.31" y="30.19" width="2.51" height="2.58"/>
    <rect class="cls-8" x="142.3" y="22.58" width="2.51" height="2.58"/>
    <rect class="cls-2" x="141.22" y="21.64" width="4.57" height="12.31"/>
  </g>
  <g id="RESISTOR">
    <ellipse class="cls-8" cx="156.27" cy="29.29" rx="6.29" ry="6.47"/>
    <path class="cls-15" d="M151.26,31.13l-.32-3.51c0-.3-.02-.59.04-.9.09-.54.85-.69,1.21-.34.13.13.17.31.2.46.16,1.77-.1,3.53-.1,5.27-.04.62.51.93.97.58.41-1.15-.37-2.92-.33-4.24,0-.3.07-.66.32-.89.23-.27.71-.28.95-.02.5.43.29,1.21.27,1.78,0,.55-.19,1.27.33,1.45.72.18.61-.57.58-1.06l-.05-.88c0-.29-.07-.6.13-.94.24-.3.65-.36.97-.16.61.47-.27,3.76,1.05,3,.15-.21-.1-1.84-.09-2.11l-.04-.9c0-.31.02-.72.33-.89.29-.17.68-.21.97.03.63.76.25,1.8.27,2.66-.06.86-.02,1.75.04,2.62.03.27.07.59.26.67.19.1.53.02.59-.17.23-1.39-.04-2.9-.09-4.32-.03-.74-.45-2.42.86-2.2.36.04.53.45.51.77,0,.61-.09,1.17-.05,1.76.04,1.17.07,2.34.13,3.51-.1-1.17-.17-2.34-.25-3.51-.05-.58,0-1.19,0-1.76,0-.3-.1-.54-.36-.56-.24-.04-.55.07-.61.26-.09,1.68.25,3.51.23,5.22.04.67-.17,1.55-1.04,1.21-.57-.4-.37-1.18-.45-1.76-.09-1.16.1-2.37.08-3.51-.03-.27-.09-.56-.26-.72-.16-.15-.47-.13-.67,0-.37.22-.15,1.17-.17,1.55l.15,1.76c.1.99-1.17.93-1.29.09-.15-.81.07-1.82-.22-2.52-.67-.28-.75.33-.7.88,0,.74.47,2.51-.86,2.18-1.2-.55.07-2.49-.68-3.27-.48-.42-.91.25-.86.73-.15,1.03,1.53,5.27-.71,4.53-.35-.17-.41-.58-.42-.86,0-1.48.2-2.93.15-4.4-.02-.54.15-1.33-.46-1.35-.7-.06-.64.73-.65,1.23l.19,3.51h0l-.05.04Z"/>
  </g>
  <g>
    <rect x="163.29" y="114.06" width="15.88" height="12.7"/>
    <polygon class="cls-8" points="163.28 126.76 160.68 126.76 159.28 124.36 159.28 116.24 160.87 114.05 163.28 114.05 163.28 126.76"/>
  </g>
  <g>
    <rect x="215.23" y="67.7" width="9.73" height="12.17"/>
    <polygon class="cls-8" points="224.96 79.87 224.96 81.87 223.12 82.94 216.91 82.94 215.23 81.72 215.23 79.87 224.96 79.87"/>
  </g>
  <g>
    <rect x="44.3" y="6.62" width="22.99" height="7.7"/>
    <rect class="cls-10" x="46.12" y="8.3" width="4.81" height="4.33"/>
    <rect class="cls-10" x="53.49" y="8.3" width="4.81" height="4.33"/>
    <rect class="cls-10" x="60.54" y="8.3" width="4.81" height="4.33"/>
    <rect class="cls-21" x="46.72" y="8.3" width="4.21" height="3.67"/>
    <rect class="cls-21" x="54.09" y="8.3" width="4.21" height="3.67"/>
    <rect class="cls-21" x="61.14" y="8.3" width="4.21" height="3.67"/>
  </g>
  <g>
    <rect x="72.01" y="128.88" width="22.88" height="7.66"/>
    <g>
      <rect class="cls-10" x="73.82" y="130.56" width="4.79" height="4.31"/>
      <rect class="cls-12" x="75.06" y="131.8" width="2.1" height="1.83"/>
    </g>
    <g>
      <rect class="cls-10" x="80.9" y="130.56" width="4.79" height="4.31"/>
      <rect class="cls-12" x="82.14" y="131.8" width="2.1" height="1.83"/>
    </g>
    <g>
      <rect class="cls-10" x="88.1" y="130.56" width="4.79" height="4.31"/>
      <rect class="cls-12" x="89.33" y="131.8" width="2.1" height="1.83"/>
    </g>
  </g>
  <g>
    <rect x="100.68" y="128.88" width="22.88" height="7.66"/>
    <g>
      <rect class="cls-10" x="102.49" y="130.56" width="4.79" height="4.31"/>
      <rect class="cls-12" x="103.73" y="131.8" width="2.1" height="1.83"/>
    </g>
    <g>
      <rect class="cls-10" x="109.57" y="130.56" width="4.79" height="4.31"/>
      <rect class="cls-12" x="110.8" y="131.8" width="2.1" height="1.83"/>
    </g>
    <g>
      <rect class="cls-10" x="116.76" y="130.56" width="4.79" height="4.31"/>
      <rect class="cls-12" x="118" y="131.8" width="2.1" height="1.83"/>
    </g>
  </g>
  <g>
    <rect x="128.18" y="114.06" width="7.66" height="22.88"/>
    <g>
      <rect class="cls-10" x="129.85" y="130.34" width="4.31" height="4.79"/>
      <rect class="cls-12" x="131.09" y="131.79" width="1.83" height="2.1"/>
    </g>
    <g>
      <rect class="cls-10" x="129.85" y="123.26" width="4.31" height="4.79"/>
      <rect class="cls-12" x="131.09" y="124.71" width="1.83" height="2.1"/>
    </g>
    <g>
      <rect class="cls-10" x="129.85" y="116.07" width="4.31" height="4.79"/>
      <rect class="cls-12" x="131.1" y="117.51" width="1.83" height="2.1"/>
    </g>
  </g>
  <g>
    <rect x="100.52" y="117.84" width="22.88" height="7.66"/>
    <g>
      <rect class="cls-10" x="102.33" y="119.51" width="4.79" height="4.31"/>
      <rect class="cls-12" x="103.57" y="120.75" width="2.1" height="1.83"/>
    </g>
    <g>
      <rect class="cls-10" x="109.41" y="119.51" width="4.79" height="4.31"/>
      <rect class="cls-12" x="110.64" y="120.75" width="2.1" height="1.83"/>
    </g>
    <g>
      <rect class="cls-10" x="116.6" y="119.51" width="4.79" height="4.31"/>
      <rect class="cls-12" x="117.84" y="120.75" width="2.1" height="1.83"/>
    </g>
  </g>
  <g>
    <rect x="104.52" y="6.59" width="21.19" height="7.09"/>
    <g>
      <rect class="cls-10" x="106.2" y="8.14" width="4.43" height="3.99"/>
      <rect class="cls-12" x="107.34" y="9.29" width="1.94" height="1.69"/>
    </g>
    <g>
      <rect class="cls-10" x="112.75" y="8.14" width="4.43" height="3.99"/>
      <rect class="cls-12" x="113.9" y="9.29" width="1.94" height="1.69"/>
    </g>
    <g>
      <rect class="cls-10" x="119.41" y="8.14" width="4.43" height="3.99"/>
      <rect class="cls-12" x="120.56" y="9.29" width="1.94" height="1.69"/>
    </g>
  </g>
  <g>
    <rect x="43.88" y="128.86" width="23.39" height="7.83"/>
    <rect class="cls-10" x="45.73" y="130.57" width="4.89" height="4.41"/>
    <rect class="cls-10" x="53.23" y="130.57" width="4.89" height="4.41"/>
    <rect class="cls-10" x="60.4" y="130.57" width="4.89" height="4.41"/>
    <rect class="cls-21" x="46.34" y="130.57" width="4.28" height="3.73"/>
    <rect class="cls-21" x="53.83" y="130.57" width="4.28" height="3.73"/>
    <rect class="cls-21" x="61.01" y="130.57" width="4.28" height="3.73"/>
  </g>
  <g>
    <g>
      <rect x="142.32" y="129.63" width="21.18" height="7.09"/>
      <rect class="cls-10" x="144" y="131.18" width="4.43" height="3.99"/>
      <rect class="cls-10" x="150.79" y="131.18" width="4.43" height="3.99"/>
      <rect class="cls-10" x="157.28" y="131.18" width="4.43" height="3.99"/>
      <rect class="cls-21" x="144.55" y="131.18" width="3.88" height="3.38"/>
      <rect class="cls-21" x="151.34" y="131.18" width="3.88" height="3.38"/>
      <rect class="cls-21" x="157.83" y="131.18" width="3.88" height="3.38"/>
    </g>
    <g>
      <rect x="162.56" y="129.63" width="21.18" height="7.09"/>
      <rect class="cls-10" x="164.23" y="131.18" width="4.43" height="3.99"/>
      <rect class="cls-10" x="171.02" y="131.18" width="4.43" height="3.99"/>
      <rect class="cls-10" x="177.51" y="131.18" width="4.43" height="3.99"/>
      <rect class="cls-21" x="164.78" y="131.18" width="3.88" height="3.38"/>
      <rect class="cls-21" x="171.57" y="131.18" width="3.88" height="3.38"/>
      <rect class="cls-21" x="178.06" y="131.18" width="3.88" height="3.38"/>
    </g>
  </g>
  <g>
    <rect x="69.61" y="6.62" width="30.55" height="7.7"/>
    <rect class="cls-10" x="71.43" y="8.3" width="4.81" height="4.33"/>
    <rect class="cls-10" x="78.8" y="8.3" width="4.81" height="4.33"/>
    <rect class="cls-10" x="85.85" y="8.3" width="4.81" height="4.33"/>
    <rect class="cls-21" x="72.03" y="8.3" width="4.21" height="3.67"/>
    <rect class="cls-21" x="79.4" y="8.3" width="4.21" height="3.67"/>
    <rect class="cls-21" x="86.45" y="8.3" width="4.21" height="3.67"/>
    <rect class="cls-10" x="93.14" y="8.3" width="4.81" height="4.33"/>
    <rect class="cls-21" x="93.74" y="8.3" width="4.21" height="3.67"/>
  </g>
  <g>
    <rect x="69.61" y="18.03" width="30.55" height="7.7"/>
    <rect class="cls-10" x="71.43" y="19.71" width="4.81" height="4.33"/>
    <rect class="cls-10" x="78.8" y="19.71" width="4.81" height="4.33"/>
    <rect class="cls-10" x="85.85" y="19.71" width="4.81" height="4.33"/>
    <rect class="cls-21" x="72.03" y="19.71" width="4.21" height="3.67"/>
    <rect class="cls-21" x="79.4" y="19.71" width="4.21" height="3.67"/>
    <rect class="cls-21" x="86.45" y="19.71" width="4.21" height="3.67"/>
    <rect class="cls-10" x="93.14" y="19.71" width="4.81" height="4.33"/>
    <rect class="cls-21" x="93.74" y="19.71" width="4.21" height="3.67"/>
  </g>
  <g>
    <rect x="7.06" y="49.7" width="9.06" height="35.99"/>
    <rect class="cls-10" x="9.04" y="77.89" width="5.1" height="5.66"/>
    <rect class="cls-10" x="9.04" y="69.21" width="5.1" height="5.66"/>
    <rect class="cls-10" x="9.04" y="60.91" width="5.1" height="5.66"/>
    <rect class="cls-21" x="9.81" y="77.88" width="4.32" height="4.96"/>
    <rect class="cls-21" x="9.82" y="69.21" width="4.32" height="4.96"/>
    <rect class="cls-21" x="9.81" y="60.9" width="4.32" height="4.96"/>
    <rect class="cls-10" x="9.04" y="52.32" width="5.1" height="5.66"/>
    <rect class="cls-21" x="9.82" y="52.32" width="4.32" height="4.96"/>
  </g>
  <g>
    <rect class="cls-11" x="7.54" y="5.98" width="34.5" height="23.93"/>
    <rect x="12.11" y="23.36" width="9.56" height="2.97"/>
    <rect x="27.23" y="23.36" width="9.56" height="2.97"/>
    <g>
      <g>
        <path class="cls-23" d="M32.32,15.82c-1.8,0-3.27-1.4-3.27-3.13s1.47-3.13,3.27-3.13,3.27,1.4,3.27,3.13-1.47,3.13-3.27,3.13Z"/>
        <path class="cls-23" d="M32.32,10.07c1.53,0,2.77,1.18,2.77,2.63s-1.24,2.63-2.77,2.63-2.77-1.18-2.77-2.63,1.24-2.63,2.77-2.63M32.32,9.07c-2.08,0-3.77,1.62-3.77,3.63s1.69,3.63,3.77,3.63,3.77-1.62,3.77-3.63-1.69-3.63-3.77-3.63h0Z"/>
      </g>
      <g>
        <line class="cls-5" x1="30.65" y1="10.49" x2="33.54" y2="14.97"/>
        <line class="cls-5" x1="29.67" y1="14.03" x2="34.08" y2="11.03"/>
      </g>
    </g>
    <g>
      <g>
        <ellipse class="cls-23" cx="16.89" cy="12.73" rx="3.27" ry="3.13"/>
        <path class="cls-23" d="M16.89,10.1c1.53,0,2.77,1.18,2.77,2.63s-1.24,2.63-2.77,2.63-2.77-1.18-2.77-2.63,1.24-2.63,2.77-2.63M16.89,9.1c-2.08,0-3.77,1.62-3.77,3.63s1.69,3.63,3.77,3.63,3.77-1.62,3.77-3.63-1.69-3.63-3.77-3.63h0Z"/>
      </g>
      <g>
        <line class="cls-5" x1="15.22" y1="10.53" x2="18.11" y2="15"/>
        <line class="cls-5" x1="14.24" y1="14.06" x2="18.65" y2="11.07"/>
      </g>
    </g>
  </g>
  <g>
    <rect class="cls-11" x="6.23" y="112.6" width="33.76" height="23.41"/>
    <rect x="10.7" y="116.11" width="9.36" height="2.9"/>
    <rect x="25.49" y="116.11" width="9.36" height="2.9"/>
    <g>
      <g>
        <ellipse class="cls-23" cx="30.48" cy="129.45" rx="3.19" ry="3.05"/>
        <path class="cls-23" d="M30.48,126.9c1.48,0,2.69,1.14,2.69,2.55s-1.21,2.55-2.69,2.55-2.69-1.14-2.69-2.55,1.21-2.55,2.69-2.55M30.48,125.9c-2.04,0-3.69,1.59-3.69,3.55s1.65,3.55,3.69,3.55,3.69-1.59,3.69-3.55-1.65-3.55-3.69-3.55h0Z"/>
      </g>
      <g>
        <line class="cls-5" x1="28.84" y1="131.61" x2="31.67" y2="127.23"/>
        <line class="cls-5" x1="27.88" y1="128.15" x2="32.2" y2="131.08"/>
      </g>
    </g>
    <g>
      <g>
        <ellipse class="cls-23" cx="15.38" cy="129.42" rx="3.19" ry="3.05"/>
        <path class="cls-23" d="M15.38,126.87c1.48,0,2.69,1.14,2.69,2.55s-1.21,2.55-2.69,2.55-2.69-1.14-2.69-2.55,1.21-2.55,2.69-2.55M15.38,125.87c-2.04,0-3.69,1.59-3.69,3.55s1.65,3.55,3.69,3.55,3.69-1.59,3.69-3.55-1.65-3.55-3.69-3.55h0Z"/>
      </g>
      <g>
        <line class="cls-5" x1="13.74" y1="131.57" x2="16.57" y2="127.19"/>
        <line class="cls-5" x1="12.79" y1="128.11" x2="17.1" y2="131.04"/>
      </g>
    </g>
  </g>
  <rect x="205.82" y="17.64" width="5.91" height="5.91"/>
  <g>
    <g>
      <rect class="cls-8" x="123.24" y="21.54" width="13.29" height="13.29"/>
      <circle class="cls-22" cx="129.89" cy="27.96" r="4.55"/>
    </g>
    <line class="cls-4" x1="129.89" y1="24.5" x2="129.89" y2="31.34"/>
    <line class="cls-4" x1="126.36" y1="27.92" x2="133.41" y2="27.92"/>
  </g>
  <g>
    <rect x="140.53" y="5.63" width="8.03" height="11.53"/>
    <g>
      <line class="cls-3" x1="148.56" y1="7.43" x2="152.79" y2="7.43"/>
      <line class="cls-3" x1="148.56" y1="9.89" x2="152.79" y2="9.89"/>
      <line class="cls-3" x1="148.56" y1="12.54" x2="152.79" y2="12.54"/>
      <line class="cls-3" x1="148.56" y1="15.01" x2="152.79" y2="15.01"/>
    </g>
    <g>
      <line class="cls-3" x1="136.32" y1="7.54" x2="140.53" y2="7.54"/>
      <line class="cls-3" x1="136.32" y1="10.01" x2="140.53" y2="10.01"/>
      <line class="cls-3" x1="136.32" y1="12.65" x2="140.53" y2="12.65"/>
      <line class="cls-3" x1="136.32" y1="15.12" x2="140.53" y2="15.12"/>
    </g>
  </g>
  <circle class="cls-8" cx="11.43" cy="39.81" r="4.47"/>
  <circle class="cls-8" cx="11.43" cy="98.35" r="4.47"/>
  <circle class="cls-8" cx="241.58" cy="69.99" r="4.47"/>
  <g>
    <rect x="225.8" y="116.48" width="24.77" height="20.21" rx="1.32" ry="1.32"/>
    <rect x="218.59" y="120.01" width="7.21" height="13.45" rx="1.92" ry="1.92"/>
    <rect class="cls-13" x="225.8" y="116.49" width="9.94" height="1.24" rx=".62" ry=".62"/>
  </g>
  <g>
    <rect class="cls-8" x="171.37" y="100.46" width="3.45" height="1.83"/>
    <rect x="170.95" y="101.13" width="4.4" height="7.6"/>
  </g>
  <g>
    <rect x="21.44" y="40.74" width="33.26" height="20.9" transform="translate(-.33 .25) rotate(-.37)"/>
    <g>
      <line class="cls-3" x1="23.69" y1="40.73" x2="23.66" y2="35.35"/>
      <line class="cls-3" x1="26.82" y1="40.71" x2="26.78" y2="35.33"/>
      <line class="cls-3" x1="30.19" y1="40.69" x2="30.15" y2="35.31"/>
      <line class="cls-3" x1="33.33" y1="40.67" x2="33.29" y2="35.29"/>
      <line class="cls-3" x1="40.01" y1="40.65" x2="39.97" y2="35.3"/>
      <line class="cls-3" x1="43.36" y1="40.63" x2="43.33" y2="35.27"/>
      <line class="cls-3" x1="46.5" y1="40.6" x2="46.47" y2="35.25"/>
      <line class="cls-3" x1="52.71" y1="40.62" x2="52.68" y2="35.26"/>
      <line class="cls-3" x1="49.57" y1="40.64" x2="49.54" y2="35.28"/>
      <line class="cls-3" x1="36.87" y1="40.67" x2="36.83" y2="35.32"/>
    </g>
    <g>
      <line class="cls-3" x1="23.93" y1="67.29" x2="23.9" y2="61.94"/>
      <line class="cls-3" x1="27.07" y1="67.27" x2="27.04" y2="61.91"/>
      <line class="cls-3" x1="30.43" y1="67.24" x2="30.39" y2="61.89"/>
      <line class="cls-3" x1="33.57" y1="67.22" x2="33.53" y2="61.87"/>
      <line class="cls-3" x1="52.68" y1="67.2" x2="52.65" y2="61.85"/>
      <line class="cls-3" x1="49.54" y1="67.22" x2="49.51" y2="61.87"/>
      <line class="cls-3" x1="36.9" y1="67.26" x2="36.87" y2="61.9"/>
      <line class="cls-3" x1="40.04" y1="67.24" x2="40.01" y2="61.88"/>
      <line class="cls-3" x1="43.4" y1="67.21" x2="43.36" y2="61.86"/>
      <line class="cls-3" x1="46.54" y1="67.19" x2="46.5" y2="61.84"/>
    </g>
  </g>
  <rect x="187.16" y="108.05" width="3.63" height="3.63"/>
</svg>